# xmcd
#
# Track frame offsets: 
#        150
#        1571
#        17620
#        32834
#        50444
#        64404
#        87837
#        105392
#        131862
#        148191
#        174717
#        191018
#        213212
#        228147
#        250104
#        262810
#        285463
#
# Disc length: 4057 seconds
#
# Revision: 3
# Processed by: cddbd v1.5.2PL0 Copyright (c) Steve Scherf et al.
# Submitted via: ExactAudioCopy v0.99pb4
#
DISCID=e10fd711,e80fd711
DTITLE=Alkbottle - The Last Of [CD 1)
DYEAR=1998
DGENRE=Rock
TTITLE0=You wanted the last
TTITLE1=Alkbottle (jo des san mir)
TTITLE2=Schiffn
TTITLE3=Weine nicht, kleine Hausmeisterin
TTITLE4=Geh scheissn
TTITLE5=Blader, fetter, lauter und a bissl mehr
TTITLE6=Wockl durch Meidling
TTITLE7=Die Gier is a Hund
TTITLE8=Miss Plastik
TTITLE9=Der Musikantenstadl brennt
TTITLE10=Fucking Christkind
TTITLE11=Fliesenlegen
TTITLE12=Batterie
TTITLE13=Die Doppleraffäre
TTITLE14=No sleep till Meidling
TTITLE15=100.000 Engel im Öl
TTITLE16=Wir san auf kana Kinderjausn
EXTD=
EXTT0=
EXTT1=
EXTT2=
EXTT3=
EXTT4=
EXTT5=
EXTT6=
EXTT7=
EXTT8=
EXTT9=
EXTT10=
EXTT11=
EXTT12=
EXTT13=
EXTT14=
EXTT15=
EXTT16=
PLAYORDER=
